<?xml version="1.0" encoding="utf-8"?><!-- Uploaded to: SVG Repo, www.svgrepo.com, Generator: SVG Repo Mixer Tools -->
<svg width="800px" height="800px" viewBox="0 0 24 24" id="Layer_1" data-name="Layer 1" xmlns="http://www.w3.org/2000/svg"><defs><style>.cls-1{fill:none;stroke:#020202;stroke-miterlimit:10;stroke-width:1.91px;}</style></defs><path class="cls-1" d="M13,22.5,7.82,17.36a2,2,0,0,1-.59-1.43,2,2,0,0,1,2-2,2,2,0,0,1,1.43.59L12,15.82V6.38a2,2,0,0,1,1.74-2,1.87,1.87,0,0,1,1.51.56,1.83,1.83,0,0,1,.57,1.34V12l5,.72a1.91,1.91,0,0,1,1.64,1.89h0a17.18,17.18,0,0,1-1.82,7.71l-.09.18"/><path class="cls-1" d="M15.82,10.64a4.54,4.54,0,0,0,1.47-1,4.78,4.78,0,1,0-6.76,0,4.54,4.54,0,0,0,1.47,1"/><polyline class="cls-1" points="4.36 9.14 1.5 6.27 4.36 3.41"/><line class="cls-1" x1="9.14" y1="6.27" x2="1.5" y2="6.27"/></svg>